<?xml version="1.0" standalone="no"?><!DOCTYPE svg PUBLIC "-//W3C//DTD SVG 1.1//EN" "http://www.w3.org/Graphics/SVG/1.1/DTD/svg11.dtd"><svg t="1717834878158" class="icon" viewBox="0 0 1570 1024" version="1.1" xmlns="http://www.w3.org/2000/svg" p-id="1787" xmlns:xlink="http://www.w3.org/1999/xlink" width="306.640625" height="200"><path d="M423.253333 547.84c0 18.773333 1.706667 35.84 3.413334 52.906667l303.786666-92.16-288.426666-88.746667c-11.946667 39.253333-18.773333 81.92-18.773334 128z" fill="#60A2DF" p-id="1788"></path><path d="M849.92 793.6c-30.72 37.546667-129.706667 40.96-160.426667 37.546667l20.48-334.506667L916.48 716.8c-30.72 29.013333-37.546667 40.96-66.56 76.8z" fill="#A3B2E0" p-id="1789"></path><path d="M541.013333 129.706667c-98.986667 54.613333-175.786667 146.773333-208.213333 257.706666l395.946667 122.88-187.733334-380.586666z" fill="#83CBE7" p-id="1790"></path><path d="M1162.24 508.586667C1126.4 616.106667 1051.306667 810.666667 885.76 887.466667l-163.84-382.293334 440.32 3.413334z" fill="#83CBE7" p-id="1791"></path><path d="M675.84 955.733333l52.906667-448.853333-395.946667 109.226667c34.133333 252.586667 206.506667 312.32 343.04 339.626666z" fill="#4B96DB" p-id="1792"></path><path d="M725.333333 39.253333c-83.626667 0-160.426667 20.48-228.693333 58.026667l228.693333 413.013333h476.16c0-261.12-213.333333-471.04-476.16-471.04z" fill="#5470C6" p-id="1793"></path><path d="M805.546667 298.666667h-5.12v13.653333h-6.826667v-13.653333h-23.893333v-3.413334l25.6-37.546666h5.12v35.84h5.12v5.12z m-27.306667-5.12h17.066667v-25.6l-17.066667 25.6zM832.853333 314.026667c-11.946667 0-18.773333-8.533333-18.773333-27.306667s6.826667-27.306667 17.066667-27.306667c11.946667 0 17.066667 10.24 17.066666 27.306667 1.706667 17.066667-5.12 25.6-15.36 27.306667z m-1.706666-51.2c-6.826667 0-11.946667 8.533333-11.946667 22.186666 0 15.36 3.413333 22.186667 11.946667 22.186667 6.826667 0 11.946667-8.533333 11.946666-22.186667 0-15.36-3.413333-22.186667-11.946666-22.186666z" fill="#FFFFFF" p-id="1794"></path><path d="M913.066667 650.24v5.12h-35.84v-3.413333c3.413333-6.826667 8.533333-13.653333 17.066666-18.773334 8.533333-6.826667 11.946667-11.946667 11.946667-15.36 0-6.826667-3.413333-10.24-10.24-10.24-5.12 0-10.24 3.413333-11.946667 10.24l-5.12-3.413333c3.413333-8.533333 8.533333-13.653333 17.066667-13.653333 10.24 0 15.36 5.12 17.066667 15.36 0 6.826667-3.413333 13.653333-13.653334 20.48-6.826667 5.12-10.24 10.24-13.653333 13.653333h27.306667zM940.373333 657.066667c-11.946667 0-18.773333-8.533333-18.773333-27.306667s6.826667-27.306667 17.066667-27.306667c11.946667 0 17.066667 10.24 17.066666 27.306667 3.413333 17.066667-3.413333 27.306667-15.36 27.306667z m0-51.2c-6.826667 0-11.946667 8.533333-11.946666 22.186666 0 15.36 3.413333 22.186667 11.946666 22.186667 6.826667 0 11.946667-8.533333 11.946667-22.186667s-5.12-20.48-11.946667-22.186666z" fill="#FFFFFF" p-id="1795"></path><path d="M542.72 728.746667h-6.826667v-42.666667c-3.413333 3.413333-8.533333 6.826667-15.36 8.533333v-5.12c8.533333-3.413333 13.653333-8.533333 17.066667-13.653333h5.12v52.906667zM561.493333 713.386667c0-6.826667 3.413333-10.24 10.24-13.653334-5.12-1.706667-6.826667-6.826667-6.826666-11.946666 0-8.533333 5.12-13.653333 15.36-15.36 10.24 0 15.36 5.12 15.36 13.653333 0 5.12-1.706667 10.24-6.826667 11.946667 6.826667 1.706667 8.533333 6.826667 8.533333 13.653333 0 10.24-6.826667 15.36-17.066666 15.36-13.653333 1.706667-18.773333-3.413333-18.773334-13.653333z m17.066667-10.24c-6.826667 0-10.24 3.413333-10.24 10.24 0 6.826667 3.413333 10.24 11.946667 10.24 6.826667 0 10.24-3.413333 11.946666-10.24-1.706667-6.826667-6.826667-10.24-13.653333-10.24z m0-23.893334c-5.12 0-8.533333 3.413333-8.533333 8.533334 0 6.826667 3.413333 8.533333 8.533333 10.24 5.12 0 8.533333-3.413333 8.533333-10.24 0-5.12-1.706667-8.533333-8.533333-8.533334z" fill="#FFFFFF" p-id="1796"></path><path d="M523.946667 366.933333h-6.826667V324.266667c-3.413333 3.413333-8.533333 6.826667-15.36 8.533333v-5.12c8.533333-3.413333 13.653333-8.533333 17.066667-13.653333h5.12v52.906666zM542.72 351.573333c0-6.826667 3.413333-10.24 10.24-13.653333-5.12-1.706667-6.826667-6.826667-6.826667-11.946667 0-8.533333 5.12-13.653333 15.36-15.36 10.24 0 15.36 5.12 15.36 13.653334 0 5.12-1.706667 10.24-6.826666 11.946666 6.826667 1.706667 8.533333 6.826667 8.533333 13.653334 0 10.24-6.826667 15.36-17.066667 15.36-11.946667 1.706667-18.773333-3.413333-18.773333-13.653334z m17.066667-10.24c-6.826667 0-10.24 3.413333-10.24 10.24 0 6.826667 3.413333 10.24 11.946666 10.24 6.826667 0 10.24-3.413333 11.946667-10.24-1.706667-6.826667-5.12-10.24-13.653333-10.24z m0-25.6c-5.12 0-8.533333 3.413333-8.533334 8.533334 0 6.826667 3.413333 8.533333 8.533334 10.24 5.12 0 8.533333-3.413333 8.533333-10.24 1.706667-5.12-1.706667-6.826667-8.533333-8.533334z" fill="#FFFFFF" p-id="1797"></path><path d="M518.826667 517.12l5.12-1.706667c1.706667 6.826667 5.12 10.24 8.533333 8.533334 6.826667 0 11.946667-6.826667 11.946667-20.48-3.413333 5.12-6.826667 6.826667-11.946667 6.826666-10.24 0-15.36-6.826667-15.36-17.066666 0-11.946667 6.826667-17.066667 17.066667-18.773334 11.946667 0 17.066667 8.533333 18.773333 27.306667 0 20.48-6.826667 29.013333-18.773333 29.013333-8.533333 0-13.653333-5.12-15.36-13.653333z m25.6-20.48c0-10.24-3.413333-17.066667-10.24-17.066667-6.826667 0-10.24 5.12-10.24 13.653334s3.413333 11.946667 10.24 11.946666c5.12 0 10.24-3.413333 10.24-8.533333z" fill="#FFFFFF" p-id="1798"></path><path d="M769.706667 679.253333h-5.12v13.653334h-6.826667v-13.653334H733.866667v-3.413333l25.6-37.546667h5.12v35.84h5.12v5.12z m-29.013334-5.12h17.066667V648.533333l-17.066667 25.6z" fill="#FFFFFF" p-id="1799"></path></svg>